<svg height="511pt" viewBox="1 -19 511.999 511" width="511pt" xmlns="http://www.w3.org/2000/svg"><path d="m209.765625 361.71875v31.367188c0 11.992187-5.605469 23.132812-14.816406 29.429687l-22.242188 15.210937h167.203125l-22.242187-15.210937c-9.210938-6.296875-14.816407-17.4375-14.816407-29.429687v-31.367188c-30.609374 0-62.476562 0-93.085937 0zm0 0" fill="#3e4b5a"/><path d="m239.765625 393.085938v-31.363282c-10.070313 0-20.105469 0-30 0v31.363282c0 11.996093-5.605469 23.132812-14.816406 29.429687l-22.242188 15.210937h30l22.246094-15.210937c9.207031-6.296875 14.8125-17.433594 14.8125-29.429687zm0 0" fill="#374451"/><path d="m355.472656 436.09375h-198.332031c-5.519531 0-10 4.476562-10 9.996094v11.199218c0 5.519532 4.480469 10 10 10h198.332031c5.523438 0 10-4.476562 10-10v-11.199218c0-5.523438-4.476562-9.996094-10-9.996094zm0 0" fill="#576574"/><path d="m355.472656 445.507812h-198.332031c-3.578125 0-6.707031-1.882812-8.472656-4.707031-.960938 1.535157-1.527344 3.34375-1.527344 5.289063v11.199218c0 5.519532 4.480469 10 10 10h198.332031c5.523438 0 10-4.476562 10-10v-11.199218c0-1.945313-.5625-3.753906-1.523437-5.289063-1.769531 2.824219-4.898438 4.707031-8.476563 4.707031zm0 0" fill="#3e4b5a"/><path d="m475.988281 8.710938c-4.5 0-435.28125 0-439.359375 0-15.890625 0-28.820312 12.929687-28.820312 28.820312v297.992188c0 15.890624 12.925781 28.820312 28.820312 28.820312h439.359375c15.890625 0 28.820313-12.929688 28.820313-28.820312 0-14.523438 0-286.777344 0-297.992188 0-15.890625-12.929688-28.820312-28.820313-28.820312zm0 0" fill="#576574"/><path d="m39.003906 335.523438v-297.992188c0-15.890625 12.929688-28.820312 28.820313-28.820312-18.976563 0-30.546875 0-31.195313 0-15.894531 0-28.820312 12.929687-28.820312 28.820312v297.992188c0 15.890624 12.925781 28.820312 28.820312 28.820312h31.195313c-15.890625-.003906-28.820313-12.929688-28.820313-28.820312zm0 0" fill="#3e4b5a"/><path d="m39.003906 74.996094v254.003906c0 2.289062 1.855469 4.144531 4.148438 4.144531h426.3125c2.289062 0 4.148437-1.855469 4.148437-4.144531 0-6.65625 0-179.667969 0-254.003906-6.214843 0-428.398437 0-434.609375 0zm0 0" fill="#e4eaf8"/><path d="m70.199219 329v-254.003906c-18.683594 0-30.207031 0-31.195313 0v254.003906c0 2.289062 1.855469 4.144531 4.148438 4.144531h31.195312c-2.292968 0-4.148437-1.855469-4.148437-4.144531zm0 0" fill="#c7d2e5"/><path d="m333.6875 194.394531c-18.46875-12.566406-47.1875-15.71875-57.144531-16.457031-1.917969-.140625-3.539063 1.375-3.539063 3.300781v7.335938c0 1.824219-1.480468 3.304687-3.304687 3.304687h-32.460938l33.53125 53.765625h29.722657l59.671874-11.632812h17.015626v-9.574219c0-4.773438 3.472656-8.765625 8.011718-9.597656-12.390625-2.984375-35.59375-9.617188-51.503906-20.445313zm0 0" fill="#feca57"/><path d="m237.238281 191.878906 33.53125 53.765625h27.75l-33.53125-53.765625zm0 0" fill="#f4b537"/><path d="m238.828125 191.878906h-38.429687c-4.875 0-8.828126-3.953125-8.828126-8.828125v-40.261719c-10.40625 3.058594-34.644531 11.367188-54.507812 30.539063-3.511719 3.386719-6.628906 6.109375-9.433594 8.332031v6.25c0 3.242188-2.652344 5.890625-5.890625 5.890625h-14.746093v48.539063c0 1.828125 1.476562 3.304687 3.304687 3.304687h162.0625zm0 0" fill="#ff6b6b"/><path d="m137.0625 173.328125c-3.507812 3.386719-6.628906 6.109375-9.433594 8.332031v6.25c0 3.242188-2.648437 5.890625-5.890625 5.890625h-14.746093v48.539063c0 1.828125 1.480468 3.304687 3.304687 3.304687h27.75c-1.824219 0-3.304687-1.476562-3.304687-3.304687v-37.398438c0-6.152344 4.988281-11.140625 11.140624-11.140625h3.605469c3.242188 0 5.894531-2.648437 5.894531-5.890625v-1.03125c0-3.226562 1.390626-6.285156 3.824219-8.398437 1.753907-1.523438 3.617188-3.230469 5.605469-5.152344 8.59375-8.292969 18.003906-14.550781 26.757812-19.230469v-11.3125c-10.402343 3.0625-34.640624 11.371094-54.507812 30.542969zm0 0" fill="#ee5253"/><path d="m469.464844 39.90625h-387.425782v37.089844h391.574219c0-17.359375 0-29.453125 0-32.941406 0-2.292969-1.859375-4.148438-4.148437-4.148438zm0 0" fill="#54a0ff"/><path d="m84.039062 39.90625h-40.886718c-2.292969 0-4.148438 1.855469-4.148438 4.148438v32.941406h45.035156zm0 0" fill="#ff6b6b"/><path d="m74.347656 39.90625h-31.195312c-2.292969 0-4.148438 1.855469-4.148438 4.148438v32.941406h31.195313v-32.941406c0-2.292969 1.855469-4.148438 4.148437-4.148438zm0 0" fill="#ee5253"/><path d="m191.570312 245.644531c0 17.105469-13.867187 30.972657-30.96875 30.972657-17.105468 0-30.972656-13.867188-30.972656-30.972657 0-17.101562 13.867188-30.96875 30.972656-30.96875 17.101563 0 30.96875 13.867188 30.96875 30.96875zm0 0" fill="#576574"/><path d="m151.476562 245.644531c0-13.257812 8.335938-24.5625 20.046876-28.980469-3.398438-1.28125-7.078126-1.988281-10.921876-1.988281-17.105468 0-30.972656 13.867188-30.972656 30.96875 0 17.105469 13.867188 30.972657 30.972656 30.972657 3.84375 0 7.523438-.707032 10.921876-1.988282-11.710938-4.417968-20.046876-15.726562-20.046876-28.984375zm0 0" fill="#3e4b5a"/><path d="m362.433594 245.644531c0 17.105469-13.867188 30.972657-30.972656 30.972657-17.105469 0-30.972657-13.867188-30.972657-30.972657 0-17.101562 13.867188-30.96875 30.972657-30.96875 17.105468 0 30.972656 13.867188 30.972656 30.96875zm0 0" fill="#576574"/><path d="m322.339844 245.644531c0-13.257812 8.332031-24.5625 20.046875-28.980469-3.398438-1.28125-7.078125-1.988281-10.925781-1.988281-17.105469 0-30.96875 13.867188-30.96875 30.96875 0 17.105469 13.863281 30.972657 30.96875 30.972657 3.847656 0 7.527343-.707032 10.925781-1.988282-11.714844-4.417968-20.046875-15.726562-20.046875-28.984375zm0 0" fill="#3e4b5a"/><path d="m342.039062 245.644531c0 5.84375-4.734374 10.582031-10.578124 10.582031s-10.578126-4.738281-10.578126-10.582031c0-5.839843 4.734376-10.578125 10.578126-10.578125s10.578124 4.738282 10.578124 10.578125zm0 0" fill="#ff6b6b"/><path d="m171.179688 245.644531c0 5.84375-4.738282 10.582031-10.578126 10.582031-5.84375 0-10.582031-4.738281-10.582031-10.582031 0-5.839843 4.738281-10.578125 10.582031-10.578125 5.839844 0 10.578126 4.738282 10.578126 10.578125zm0 0" fill="#ff6b6b"/><path d="m208.109375 128.855469h-13.335937c-2.875 0-5.203126 2.328125-5.203126 5.199219v48.996093c0 4.878907 3.953126 8.828125 8.828126 8.828125h14.914062v-57.824218c0-2.871094-2.332031-5.199219-5.203125-5.199219zm0 0" fill="#ee5253"/><path d="m205.40625 183.050781v-48.996093c0-2.4375 1.683594-4.46875 3.953125-5.03125-.402344-.101563-.816406-.167969-1.25-.167969h-13.335937c-2.875 0-5.203126 2.328125-5.203126 5.199219v48.996093c0 4.878907 3.953126 8.828125 8.828126 8.828125h14.914062v-.046875c-4.445312-.460937-7.90625-4.214843-7.90625-8.78125zm0 0" fill="#d83941"/><path d="m423.527344 214.558594h-36.941406c-5.410157 0-9.835938 4.425781-9.835938 9.835937v11.535157c0 5.410156 4.425781 9.835937 9.835938 9.835937h36.941406c5.410156 0 9.835937-4.425781 9.835937-9.835937v-11.535157c0-5.410156-4.425781-9.835937-9.835937-9.835937zm0 0" fill="#f4b537"/><path d="m404.5 235.929688v-11.535157c0-5.410156 4.429688-9.835937 9.835938-9.835937h-27.75c-5.410157 0-9.835938 4.425781-9.835938 9.835937v11.535157c0 5.410156 4.425781 9.835937 9.835938 9.835937h27.75c-5.40625 0-9.835938-4.425781-9.835938-9.835937zm0 0" fill="#ea9b28"/><path d="m84.039062 157.585938v32.324218c0 3.242188 2.652344 5.890625 5.890626 5.890625h33.808593c3.242188 0 5.890625-2.648437 5.890625-5.890625v-32.324218zm0 0" fill="#ff6b6b"/><path d="m111.789062 189.910156v-32.324218h-27.75v32.324218c0 3.242188 2.652344 5.890625 5.890626 5.890625h27.753906c-3.242188 0-5.894532-2.648437-5.894532-5.890625zm0 0" fill="#ee5253"/><path d="m123.738281 133.710938h-33.808593c-3.238282 0-5.890626 2.652343-5.890626 5.894531v18.980469h45.589844v-18.980469c0-3.242188-2.648437-5.894531-5.890625-5.894531zm0 0" fill="#feca57"/><path d="m117.683594 133.710938h-27.753906c-3.238282 0-5.890626 2.652343-5.890626 5.894531v18.980469h27.75v-18.980469c0-3.242188 2.652344-5.894531 5.894532-5.894531zm0 0" fill="#f4b537"/><path d="m42.84375 31.695312c-6.421875 0-11.648438 5.222657-11.648438 11.648438v284.945312c0 6.421876 5.226563 11.644532 11.648438 11.644532h426.3125c6.421875 0 11.648438-5.222656 11.648438-11.644532 0-9.726562 0-278.695312 0-284.945312 0-6.421875-5.226563-11.648438-11.648438-11.648438-17.632812 0-408.636719 0-426.3125 0zm3.351562 15h30.035157v22.085938h-30.035157zm0 278.238282v-241.148438h419.609376v241.148438zm419.609376-256.152344h-374.574219v-22.085938h374.574219zm0 0"/><path d="m331.152344 226.855469c-9.96875 0-18.078125 8.109375-18.078125 18.078125s8.109375 18.082031 18.078125 18.082031c9.972656 0 18.082031-8.109375 18.082031-18.082031 0-9.96875-8.109375-18.078125-18.082031-18.078125zm0 21.160156c-1.699219 0-3.078125-1.382813-3.078125-3.082031 0-1.699219 1.378906-3.078125 3.078125-3.078125 1.699218 0 3.082031 1.378906 3.082031 3.078125 0 1.699218-1.382813 3.082031-3.082031 3.082031zm0 0"/><path d="m160.292969 226.855469c-9.972657 0-18.082031 8.109375-18.082031 18.078125s8.109374 18.082031 18.082031 18.082031c9.96875 0 18.078125-8.109375 18.078125-18.082031 0-9.96875-8.109375-18.078125-18.078125-18.078125zm0 21.160156c-1.699219 0-3.082031-1.382813-3.082031-3.082031 0-1.699219 1.382812-3.078125 3.082031-3.078125 1.695312 0 3.078125 1.378906 3.078125 3.078125 0 1.699218-1.382813 3.082031-3.078125 3.082031zm0 0"/><path d="m423.292969 206.464844h-36.660157c-.425781 0-.847656.03125-1.265624.0625-12.167969-3.003906-33.367188-9.246094-47.765626-19.042969-19.707031-13.414063-49.09375-16.871094-60.8125-17.734375-6.246093-.46875-11.59375 4.492188-11.59375 10.777344v3.140625c-14.9375 0-29.816406 0-44.691406 0v-50.324219c0-7.003906-5.699218-12.699219-12.703125-12.699219h-11.335937c-7.003906 0-12.703125 5.695313-12.703125 12.699219v3.261719c-11.886719 4.09375-29.929688 12.246093-46.941407 27.570312 0-9.136719 0-16.179687 0-25.28125 0-7.386719-6.007812-13.394531-13.390624-13.394531h-33.808594c-7.382813 0-13.390625 6.007812-13.390625 13.394531v50.304688c0 7.386719 6.007812 13.390625 13.390625 13.390625h9.5625v39.039062c0 5.960938 4.847656 10.808594 10.804687 10.808594h12.574219c3.5 17.632812 19.085938 30.96875 37.730469 30.96875s34.230469-13.335938 37.730469-30.96875h95.398437c3.5 17.632812 19.085937 30.96875 37.730469 30.96875 22.71875 0 40.699218-19.734375 38.246094-42.605469h.933593c2.339844 6.761719 8.757813 11.636719 16.300781 11.636719h36.660157c9.519531 0 17.265625-7.746094 17.265625-17.261719v-11.449219c-.003906-9.519531-7.746094-17.261718-17.265625-17.261718zm-224.53125-70.820313h6.742187v48.023438h-5.414062c-.730469 0-1.328125-.59375-1.328125-1.328125 0-10.421875 0-36.503906 0-46.695313zm-107.53125 4.859375h30.589843v9.871094h-30.589843zm0 24.871094h30.589843v22.214844c-11.019531 0-19.234374 0-30.589843 0zm69.0625 103.03125c-12.941407 0-23.472657-10.53125-23.472657-23.472656s10.53125-23.46875 23.472657-23.46875c12.941406 0 23.46875 10.527344 23.46875 23.46875s-10.527344 23.472656-23.46875 23.472656zm37.734375-30.972656c-3.59375-17.988282-19.445313-30.96875-37.734375-30.96875-18.355469 0-34.152344 13.054687-37.738281 30.96875h-8.371094v-34.84375h9.246094c7.386718 0 13.394531-6.003906 13.394531-13.390625v-4.703125c8.105469-6.867188 20.441406-21.476563 46.941406-31.910156v29.753906c0 9.003906 7.324219 16.328125 16.328125 16.328125h34.269531l24.175781 38.765625zm133.125 30.972656c-12.941406 0-23.46875-10.53125-23.46875-23.472656 0-12.9375 10.527344-23.46875 23.46875-23.46875h.003906c13.097656.003906 23.464844 10.699218 23.464844 23.46875.003906 12.941406-10.527344 23.472656-23.46875 23.472656zm.003906-61.941406h-.003906-.003906c-18.335938 0-34.144532 13.035156-37.730469 30.96875h-17.203125l-24.175782-38.765625h17.351563c5.960937 0 10.808594-4.847657 10.808594-10.804688v-2.75c11.320312 1.175781 34.1875 4.714844 48.960937 14.769531 12.257813 8.34375 28.351563 14.28125 41.191406 18.105469-.558593 1.582031-.980468 3.730469-.980468 5.738281v2.074219h-4.835938c-6.980468-12.214843-19.894531-19.335937-33.378906-19.335937zm94.398438 28.707031c0 1.226563-1.035157 2.261719-2.261719 2.261719h-36.660157c-1.226562 0-2.261718-1.035156-2.261718-2.261719 0-4.542969 0-7.171875 0-11.445313 0-1.230468 1.078125-2.261718 2.261718-2.261718h36.660157c1.226562 0 2.261719 1.035156 2.261719 2.261718zm0 0"/><path d="m433.054688 101.589844h-18.667969c-4.144531 0-7.5 3.359375-7.5 7.503906 0 4.140625 3.355469 7.5 7.5 7.5h18.667969c4.144531 0 7.5-3.359375 7.5-7.5 0-4.144531-3.355469-7.503906-7.5-7.503906zm0 0"/><path d="m475.679688.5h-202.179688c-4.144531 0-7.5 3.359375-7.5 7.5s3.355469 7.5 7.5 7.5h202.179688c11.753906 0 21.320312 9.5625 21.320312 21.320312v136.847657c0 4.140625 3.355469 7.5 7.5 7.5 4.140625 0 7.5-3.359375 7.5-7.5v-136.847657c0-20.027343-16.292969-36.320312-36.320312-36.320312zm0 0"/><path d="m504.5 201.167969c-4.144531 0-7.5 3.359375-7.5 7.503906v126.140625c0 11.753906-9.566406 21.316406-21.320312 21.316406-6.601563 0-432.285157 0-439.359376 0-11.753906 0-21.320312-9.5625-21.320312-21.316406v-297.992188c0-11.757812 9.566406-21.320312 21.320312-21.320312h202.179688c4.144531 0 7.5-3.359375 7.5-7.5s-3.355469-7.5-7.5-7.5h-202.179688c-20.027343 0-36.320312 16.292969-36.320312 36.320312v297.992188c0 20.027344 16.292969 36.320312 36.320312 36.320312h165.636719v22.109376c0 8.714843-4.359375 16.945312-11.382812 21.476562l-20.386719 13.160156h-13.355469c-9.648437 0-17.5 7.851563-17.5 17.5v11.199219c0 9.648437 7.851563 17.5 17.5 17.5h198.335938c9.648437 0 17.496093-7.851563 17.496093-17.5v-11.199219c0-9.648437-7.847656-17.5-17.496093-17.5h-13.355469l-20.386719-13.160156c-7.023437-4.53125-11.382812-12.761719-11.382812-21.476562v-22.109376h165.636719c20.027343 0 36.320312-16.292968 36.320312-36.320312v-126.140625c0-4.144531-3.359375-7.503906-7.5-7.503906zm-146.835938 244.210937v11.195313c0 1.378906-1.121093 2.5-2.496093 2.5h-198.335938c-1.375 0-2.496093-1.121094-2.496093-2.5v-11.195313c0-1.375 1.121093-2.5 2.496093-2.5h198.335938c1.375.003906 2.496093 1.125 2.496093 2.5zm-43.511718-17.5h-116.304688c13.109375-8.464844 19.109375-21.332031 19.109375-34.636718v-22.109376h78.082031v22.109376c0 13.375 6.054688 26.207031 19.113282 34.636718zm0 0"/></svg>